{
  "asset": {
    "generator": "Khronos glTF Blender I/O v3.4.50",
    "version": "2.0"
  },
  "extensionsUsed": ["KHR_materials_specular", "KHR_materials_ior"],
  "scene": 0,
  "scenes": [
    {
      "name": "Scene",
      "nodes": [0, 1, 2, 3]
    }
  ],
  "nodes": [
    {
      "mesh": 0,
      "name": "Cylinder",
      "translation": [0, -0.0905957818031311, 0]
    },
    {
      "mesh": 1,
      "name": "Cylinder.001",
      "translation": [0, 6.639997482299805, 0]
    },
    {
      "mesh": 2,
      "name": "Cylinder.003",
      "translation": [0, 30.585664749145508, 0]
    },
    {
      "mesh": 3,
      "name": "Plane",
      "translation": [0, 23.614715576171875, 0]
    }
  ],
  "animations": [
    {
      "channels": [
        {
          "sampler": 0,
          "target": {
            "node": 0,
            "path": "translation"
          }
        }
      ],
      "name": "CylinderAction",
      "samplers": [
        {
          "input": 16,
          "interpolation": "STEP",
          "output": 17
        }
      ]
    },
    {
      "channels": [
        {
          "sampler": 0,
          "target": {
            "node": 1,
            "path": "translation"
          }
        }
      ],
      "name": "Cylinder.001Action",
      "samplers": [
        {
          "input": 18,
          "interpolation": "LINEAR",
          "output": 19
        }
      ]
    },
    {
      "channels": [
        {
          "sampler": 0,
          "target": {
            "node": 2,
            "path": "translation"
          }
        }
      ],
      "name": "Cylinder.003Action",
      "samplers": [
        {
          "input": 18,
          "interpolation": "LINEAR",
          "output": 20
        }
      ]
    },
    {
      "channels": [
        {
          "sampler": 0,
          "target": {
            "node": 3,
            "path": "translation"
          }
        },
        {
          "sampler": 1,
          "target": {
            "node": 3,
            "path": "rotation"
          }
        }
      ],
      "name": "PlaneAction",
      "samplers": [
        {
          "input": 18,
          "interpolation": "LINEAR",
          "output": 21
        },
        {
          "input": 22,
          "interpolation": "LINEAR",
          "output": 23
        }
      ]
    }
  ],
  "materials": [
    {
      "doubleSided": true,
      "extensions": {
        "KHR_materials_specular": {
          "specularColorFactor": [
            1.259399701218953, 1.259399701218953, 1.259399701218953
          ]
        },
        "KHR_materials_ior": {
          "ior": 1.4500000476837158
        }
      },
      "name": "Material.002",
      "pbrMetallicRoughness": {
        "baseColorFactor": [
          0.8000000715255737, 0.311563104391098, 0.10352377593517303, 1
        ],
        "metallicFactor": 0,
        "roughnessFactor": 0.727979302406311
      }
    },
    {
      "doubleSided": true,
      "name": "Material.001",
      "pbrMetallicRoughness": {
        "baseColorFactor": [
          0.2018996775150299, 0.043110791593790054, 0.016438255086541176, 1
        ],
        "metallicFactor": 0,
        "roughnessFactor": 0.6606217622756958
      }
    },
    {
      "doubleSided": true,
      "name": "Material.003",
      "pbrMetallicRoughness": {
        "baseColorFactor": [0.8000000715255737, 0.6447913646697998, 0, 1],
        "metallicFactor": 0,
        "roughnessFactor": 0.2512953281402588
      }
    }
  ],
  "meshes": [
    {
      "name": "Cylinder",
      "primitives": [
        {
          "attributes": {
            "POSITION": 0,
            "TEXCOORD_0": 1,
            "NORMAL": 2
          },
          "indices": 3,
          "material": 0
        }
      ]
    },
    {
      "name": "Cylinder.001",
      "primitives": [
        {
          "attributes": {
            "POSITION": 4,
            "TEXCOORD_0": 5,
            "NORMAL": 6
          },
          "indices": 7,
          "material": 1
        }
      ]
    },
    {
      "name": "Cylinder.003",
      "primitives": [
        {
          "attributes": {
            "POSITION": 8,
            "TEXCOORD_0": 9,
            "NORMAL": 10
          },
          "indices": 11,
          "material": 0
        }
      ]
    },
    {
      "name": "Plane.001",
      "primitives": [
        {
          "attributes": {
            "POSITION": 12,
            "TEXCOORD_0": 13,
            "NORMAL": 14
          },
          "indices": 15,
          "material": 2
        }
      ]
    }
  ],
  "accessors": [
    {
      "bufferView": 0,
      "componentType": 5126,
      "count": 908,
      "max": [1.5230733156204224, 0.17019401490688324, 1.5230733156204224],
      "min": [-1.5230733156204224, -0.31472116708755493, -1.5230733156204224],
      "type": "VEC3"
    },
    {
      "bufferView": 1,
      "componentType": 5126,
      "count": 908,
      "type": "VEC2"
    },
    {
      "bufferView": 2,
      "componentType": 5126,
      "count": 908,
      "type": "VEC3"
    },
    {
      "bufferView": 3,
      "componentType": 5123,
      "count": 3456,
      "type": "SCALAR"
    },
    {
      "bufferView": 4,
      "componentType": 5126,
      "count": 845,
      "max": [1.3621282577514648, 0.15214890241622925, 1.3621282577514648],
      "min": [-1.3621282577514648, -0.15244275331497192, -1.3621282577514648],
      "type": "VEC3"
    },
    {
      "bufferView": 5,
      "componentType": 5126,
      "count": 845,
      "type": "VEC2"
    },
    {
      "bufferView": 6,
      "componentType": 5126,
      "count": 845,
      "type": "VEC3"
    },
    {
      "bufferView": 7,
      "componentType": 5123,
      "count": 2688,
      "type": "SCALAR"
    },
    {
      "bufferView": 8,
      "componentType": 5126,
      "count": 969,
      "max": [1.5230733156204224, 0.5914568305015564, 1.5230733156204224],
      "min": [-1.5230733156204224, -0.17019499838352203, -1.5230733156204224],
      "type": "VEC3"
    },
    {
      "bufferView": 9,
      "componentType": 5126,
      "count": 969,
      "type": "VEC2"
    },
    {
      "bufferView": 10,
      "componentType": 5126,
      "count": 969,
      "type": "VEC3"
    },
    {
      "bufferView": 11,
      "componentType": 5123,
      "count": 4992,
      "type": "SCALAR"
    },
    {
      "bufferView": 12,
      "componentType": 5126,
      "count": 9413,
      "max": [1.5280873775482178, 0, 1.5285379886627197],
      "min": [-1.5280873775482178, -0.4707522392272949, -1.5280873775482178],
      "type": "VEC3"
    },
    {
      "bufferView": 13,
      "componentType": 5126,
      "count": 9413,
      "type": "VEC2"
    },
    {
      "bufferView": 14,
      "componentType": 5126,
      "count": 9413,
      "type": "VEC3"
    },
    {
      "bufferView": 15,
      "componentType": 5123,
      "count": 16416,
      "type": "SCALAR"
    },
    {
      "bufferView": 16,
      "componentType": 5126,
      "count": 1,
      "max": [0.8333333333333334],
      "min": [0.8333333333333334],
      "type": "SCALAR"
    },
    {
      "bufferView": 17,
      "componentType": 5126,
      "count": 1,
      "type": "VEC3"
    },
    {
      "bufferView": 18,
      "componentType": 5126,
      "count": 20,
      "max": [0.8333333333333334],
      "min": [0.041666666666666664],
      "type": "SCALAR"
    },
    {
      "bufferView": 19,
      "componentType": 5126,
      "count": 20,
      "type": "VEC3"
    },
    {
      "bufferView": 20,
      "componentType": 5126,
      "count": 20,
      "type": "VEC3"
    },
    {
      "bufferView": 21,
      "componentType": 5126,
      "count": 20,
      "type": "VEC3"
    },
    {
      "bufferView": 22,
      "componentType": 5126,
      "count": 11,
      "max": [0.8333333333333334],
      "min": [0.4166666666666667],
      "type": "SCALAR"
    },
    {
      "bufferView": 23,
      "componentType": 5126,
      "count": 11,
      "type": "VEC4"
    }
  ],
  "bufferViews": [
    {
      "buffer": 0,
      "byteLength": 10896,
      "byteOffset": 0,
      "target": 34962
    },
    {
      "buffer": 0,
      "byteLength": 7264,
      "byteOffset": 10896,
      "target": 34962
    },
    {
      "buffer": 0,
      "byteLength": 10896,
      "byteOffset": 18160,
      "target": 34962
    },
    {
      "buffer": 0,
      "byteLength": 6912,
      "byteOffset": 29056,
      "target": 34963
    },
    {
      "buffer": 0,
      "byteLength": 10140,
      "byteOffset": 35968,
      "target": 34962
    },
    {
      "buffer": 0,
      "byteLength": 6760,
      "byteOffset": 46108,
      "target": 34962
    },
    {
      "buffer": 0,
      "byteLength": 10140,
      "byteOffset": 52868,
      "target": 34962
    },
    {
      "buffer": 0,
      "byteLength": 5376,
      "byteOffset": 63008,
      "target": 34963
    },
    {
      "buffer": 0,
      "byteLength": 11628,
      "byteOffset": 68384,
      "target": 34962
    },
    {
      "buffer": 0,
      "byteLength": 7752,
      "byteOffset": 80012,
      "target": 34962
    },
    {
      "buffer": 0,
      "byteLength": 11628,
      "byteOffset": 87764,
      "target": 34962
    },
    {
      "buffer": 0,
      "byteLength": 9984,
      "byteOffset": 99392,
      "target": 34963
    },
    {
      "buffer": 0,
      "byteLength": 112956,
      "byteOffset": 109376,
      "target": 34962
    },
    {
      "buffer": 0,
      "byteLength": 75304,
      "byteOffset": 222332,
      "target": 34962
    },
    {
      "buffer": 0,
      "byteLength": 112956,
      "byteOffset": 297636,
      "target": 34962
    },
    {
      "buffer": 0,
      "byteLength": 32832,
      "byteOffset": 410592,
      "target": 34963
    },
    {
      "buffer": 0,
      "byteLength": 4,
      "byteOffset": 443424
    },
    {
      "buffer": 0,
      "byteLength": 12,
      "byteOffset": 443428
    },
    {
      "buffer": 0,
      "byteLength": 80,
      "byteOffset": 443440
    },
    {
      "buffer": 0,
      "byteLength": 240,
      "byteOffset": 443520
    },
    {
      "buffer": 0,
      "byteLength": 240,
      "byteOffset": 443760
    },
    {
      "buffer": 0,
      "byteLength": 240,
      "byteOffset": 444000
    },
    {
      "buffer": 0,
      "byteLength": 44,
      "byteOffset": 444240
    },
    {
      "buffer": 0,
      "byteLength": 176,
      "byteOffset": 444284
    }
  ],
  "buffers": [
    {
      "byteLength": 444460,
      "uri": "data:application/octet-stream;base64,"
    }
  ]
}
